<?xml version="1.0" encoding="UTF-8" standalone="no"?>
<svg
   xmlns:dc="http://purl.org/dc/elements/1.1/"
   xmlns:cc="http://creativecommons.org/ns#"
   xmlns:rdf="http://www.w3.org/1999/02/22-rdf-syntax-ns#"
   xmlns:svg="http://www.w3.org/2000/svg"
   xmlns="http://www.w3.org/2000/svg"
   xmlns:sodipodi="http://sodipodi.sourceforge.net/DTD/sodipodi-0.dtd"
   xmlns:inkscape="http://www.inkscape.org/namespaces/inkscape"
   version="1.1"
   data-browser="Chrome[44.0]"
   preserveAspectRatio="xMidYMid meet"
   viewBox="0 0 343 46"
   id="svg3076"
   inkscape:version="0.48.4 r9939"
   width="100%"
   height="100%"
   sodipodi:docname="logo-dark.svg">
  <metadata
     id="metadata3165">
    <rdf:RDF>
      <cc:Work
         rdf:about="">
        <dc:format>image/svg+xml</dc:format>
        <dc:type
           rdf:resource="http://purl.org/dc/dcmitype/StillImage" />
        <dc:title></dc:title>
      </cc:Work>
    </rdf:RDF>
  </metadata>
  <defs
     id="defs3163" />
  <sodipodi:namedview
     pagecolor="#ffffff"
     bordercolor="#666666"
     borderopacity="1"
     objecttolerance="10"
     gridtolerance="10"
     guidetolerance="10"
     inkscape:pageopacity="0"
     inkscape:pageshadow="2"
     inkscape:window-width="1920"
     inkscape:window-height="1125"
     id="namedview3161"
     showgrid="false"
     showguides="true"
     inkscape:guide-bbox="true"
     inkscape:zoom="1.2827988"
     inkscape:cx="235.03777"
     inkscape:cy="-98.879104"
     inkscape:window-x="-9"
     inkscape:window-y="-9"
     inkscape:window-maximized="1"
     inkscape:current-layer="layer3" />
  <g
     inkscape:groupmode="layer"
     id="layer3"
     inkscape:label="Layer"
     style="display:inline">
    <g
       transform="translate(11.422735,0.05447291)"
       id="logo__item--business"
       class="logo__item"
       style="fill:#3e3e5d;fill-opacity:0.67088611">
      <g
         class="logo__item__inner"
         transform="translate(51,27.769762)"
         id="g3079"
         style="fill:#3e3e5d;fill-opacity:0.67088611">
        <text
           style="font-size:32px;font-style:normal;font-weight:normal;letter-spacing:0;fill:#3e3e5d;fill-opacity:0.67088611;font-family:RobotoSlab-Regular"
           dominant-baseline="auto"
           alignment-baseline="auto"
           font-size="32px"
           letter-spacing="0"
           font-weight="normal"
           font-style="normal"
           id="text3081">MinLokaleButik.dk</text>
      </g>
    </g>
    <g
       transform="translate(10.871515,0.88130291)"
       id="logo__item--tagline_1"
       class="logo__item"
       style="fill:#3e3e5d;fill-opacity:0.67088611">
      <g
         class="logo__item__inner"
         transform="translate(53.109375,43.457262)"
         id="g3084"
         style="fill:#3e3e5d;fill-opacity:0.67088611">
        <text
           style="font-size:18px;font-style:normal;font-weight:normal;letter-spacing:1;fill:#3e3e5d;fill-opacity:0.67088611;font-family:Montserrat-Regular"
           dominant-baseline="auto"
           alignment-baseline="auto"
           font-size="18px"
           letter-spacing="1"
           font-weight="normal"
           font-style="normal"
           id="text3086">lokale tilbud</text>
      </g>
    </g>
    <g
       transform="translate(10.871515,0.88130291)"
       id="logo__item--logo_0"
       class="logo__item"
       style="fill:#3e3e5d;fill-opacity:0.67088611">
      <g
         class="logo__item__inner"
         transform="matrix(0.53301049,0,0,0.53301049,-0.02428856,-4)"
         id="g3089"
         style="fill:#3e3e5d;fill-opacity:0.67088611">
        <g
           id="g3091"
           style="fill:#3e3e5d;fill-opacity:0.67088611">
          <g
             id="g3093"
             style="fill:#3e3e5d;fill-opacity:0.67088611">
            <radialGradient
               id="SVGID_1_"
               cx="31.5098"
               cy="54.6875"
               r="87.683998"
               gradientUnits="userSpaceOnUse">
              <stop
                 offset="0"
                 style="stop-color:#919395"
                 id="stop3096" />
              <stop
                 offset="0.6727"
                 style="stop-color:#424243"
                 id="stop3098" />
              <stop
                 offset="1"
                 style="stop-color:#272525"
                 id="stop3100" />
            </radialGradient>
            <path
               style="fill:#3e3e5d;fill-opacity:0.67088611"
               inkscape:connector-curvature="0"
               d="m 5.864,22.448 c 1.331,-2.195 3.505,-4.425 6.347,-3.809 4.847,0.835 7.601,5.629 8.815,9.976 2.407,7.568 4.234,15.328 7.044,22.776 1.14,3.145 3.59,6.075 7.137,6.373 11.658,1.345 23.439,0.615 35.152,1.196 3.095,0.269 7.219,1.431 7.696,5.062 -0.198,3.378 -3.884,4.752 -6.726,5.282 C 61.13,70.578 50.832,69.397 40.612,68.964 36.853,68.574 32.934,68.992 29.348,67.611 44.297,65.806 74.193,69.87 74.497,64.454 74.603,63.053 71.846,63.18 70.38,63.18 58.372,62.889 46.333,64.03 34.35,63.08 29.504,62.684 25.429,59.207 23.538,54.832 19.694,46.202 18.44,36.714 15.916,27.666 c -0.743,-2.535 -2.103,-5.261 -4.772,-6.16 -1.786,0.191 -3.539,0.51 -5.28,0.942 z"
               id="path3102" />
            <radialGradient
               id="SVGID_2_"
               cx="47.3325"
               cy="44.138199"
               r="62.842899"
               gradientUnits="userSpaceOnUse">
              <stop
                 offset="0"
                 style="stop-color:#FFF24F"
                 id="stop3105" />
              <stop
                 offset="0.0351"
                 style="stop-color:#FBE748"
                 id="stop3107" />
              <stop
                 offset="0.1137"
                 style="stop-color:#F4D43B"
                 id="stop3109" />
              <stop
                 offset="0.1946"
                 style="stop-color:#F0C933"
                 id="stop3111" />
              <stop
                 offset="0.2809"
                 style="stop-color:#EFC531"
                 id="stop3113" />
              <stop
                 offset="0.6685"
                 style="stop-color:#DB8E46"
                 id="stop3115" />
              <stop
                 offset="0.8876"
                 style="stop-color:#D16841"
                 id="stop3117" />
              <stop
                 offset="1"
                 style="stop-color:#C9403C"
                 id="stop3119" />
            </radialGradient>
            <path
               style="fill:#3e3e5d;fill-opacity:0.67088611"
               inkscape:connector-curvature="0"
               d="m 33.646,23.191 c 0,-3.59 34.813,-2.556 48.233,-2.605 2.078,-0.05 4.163,0.142 6.241,0.417 0.294,3.441 -1.31,6.563 -2.364,9.721 -2.113,5.402 -4.143,11.002 -7.816,15.555 -2.015,2.698 -5.725,2.336 -8.713,2.662 -11.289,0.248 -22.563,-0.828 -33.85,-0.694 -2.715,-0.028 -5.501,0.312 -8.121,-0.552 14.964,-1.657 30.154,0.212 45.068,-2.216 4.549,-0.835 5.406,-6.351 7.285,-9.785 -13.695,-0.078 -45.322,3.342 -45.322,-0.8 0,-2.903 9.144,-2.032 13.813,-2.152 9.523,0.156 19.048,0.701 28.572,0.375 1.479,-0.34 3.844,0.389 4.383,-1.572 0.941,-2.096 1.532,-4.333 2.227,-6.535 -11.368,0.249 -49.636,2.365 -49.636,-1.819 z"
               id="path3121" />
          </g>
          <radialGradient
             id="SVGID_3_"
             cx="47.331501"
             cy="44.137199"
             r="62.8489"
             gradientUnits="userSpaceOnUse">
            <stop
               offset="0"
               style="stop-color:#FFF24F"
               id="stop3124" />
            <stop
               offset="0.0351"
               style="stop-color:#FBE748"
               id="stop3126" />
            <stop
               offset="0.1137"
               style="stop-color:#F4D43B"
               id="stop3128" />
            <stop
               offset="0.1946"
               style="stop-color:#F0C933"
               id="stop3130" />
            <stop
               offset="0.2809"
               style="stop-color:#EFC531"
               id="stop3132" />
            <stop
               offset="0.6685"
               style="stop-color:#DB8E46"
               id="stop3134" />
            <stop
               offset="0.8876"
               style="stop-color:#D16841"
               id="stop3136" />
            <stop
               offset="1"
               style="stop-color:#C9403C"
               id="stop3138" />
          </radialGradient>
          <path
             style="fill:#3e3e5d;fill-opacity:0.67088611"
             inkscape:connector-curvature="0"
             d="m 36.97,72.002 c 4.835,-2.061 10.443,2.874 9.197,7.943 -0.842,5.346 -8.415,7.477 -11.88,3.299 -3.462,-3.384 -1.784,-9.678 2.683,-11.242 z"
             id="path3140" />
          <radialGradient
             id="SVGID_4_"
             cx="47.333"
             cy="44.128399"
             r="62.854"
             gradientUnits="userSpaceOnUse">
            <stop
               offset="0"
               style="stop-color:#FFF24F"
               id="stop3143" />
            <stop
               offset="0.0351"
               style="stop-color:#FBE748"
               id="stop3145" />
            <stop
               offset="0.1137"
               style="stop-color:#F4D43B"
               id="stop3147" />
            <stop
               offset="0.1946"
               style="stop-color:#F0C933"
               id="stop3149" />
            <stop
               offset="0.2809"
               style="stop-color:#EFC531"
               id="stop3151" />
            <stop
               offset="0.6685"
               style="stop-color:#DB8E46"
               id="stop3153" />
            <stop
               offset="0.8876"
               style="stop-color:#D16841"
               id="stop3155" />
            <stop
               offset="1"
               style="stop-color:#C9403C"
               id="stop3157" />
          </radialGradient>
          <path
             style="fill:#3e3e5d;fill-opacity:0.67088611"
             inkscape:connector-curvature="0"
             d="m 59.105,72.072 c 4.812,-2.223 10.547,2.577 9.428,7.682 -0.605,5.246 -7.855,7.633 -11.52,3.88 -3.685,-3.214 -2.544,-9.87 2.092,-11.562 z"
             id="path3159" />
        </g>
      </g>
    </g>
  </g>
</svg>
